<?xml version="1.0" standalone="no"?>
<!DOCTYPE svg PUBLIC "-//W3C//DTD SVG 20010904//EN"
 "http://www.w3.org/TR/2001/REC-SVG-20010904/DTD/svg10.dtd">
<svg version="1.0" xmlns="http://www.w3.org/2000/svg"
 width="700.000000pt" height="700.000000pt" viewBox="0 0 700.000000 700.000000"
 preserveAspectRatio="xMidYMid meet">
<metadata>
Created by potrace 1.14, written by Peter Selinger 2001-2017
</metadata>
<g transform="translate(0.000000,700.000000) scale(0.100000,-0.100000)"
fill="#000000" stroke="none">
<path d="M3758 6865 c-20 -8 -59 -17 -85 -21 -26 -3 -82 -22 -123 -41 -41 -19
-100 -39 -130 -43 -90 -14 -95 -15 -100 -20 -8 -8 -140 -41 -187 -47 -24 -3
-43 -1 -43 4 0 27 118 102 207 132 57 19 61 38 4 21 -17 -5 -31 -7 -31 -4 0
16 -136 -53 -241 -123 -69 -45 -131 -83 -137 -83 -7 0 -12 -5 -12 -10 0 -10
-70 -78 -97 -93 -27 -16 -26 2 1 38 33 43 13 48 -34 9 -17 -15 -33 -24 -36
-21 -7 7 115 133 152 158 16 10 22 19 14 18 -50 -1 -275 -206 -294 -267 -8
-25 -60 -82 -75 -82 -5 0 -15 -13 -23 -30 -16 -37 -43 -51 -32 -17 4 12 9 29
11 37 3 8 -4 2 -16 -15 -11 -16 -21 -34 -21 -38 0 -15 -65 -87 -79 -87 -10 0
-12 9 -7 38 l7 37 -25 -30 c-14 -16 -31 -41 -38 -55 -20 -37 -31 -47 -48 -43
-10 3 -22 -8 -33 -29 -9 -18 -33 -60 -52 -93 -24 -41 -35 -73 -35 -100 0 -27
-6 -44 -18 -51 -20 -13 -82 -7 -82 8 0 5 -4 6 -10 3 -5 -3 -10 -15 -10 -26 0
-10 -7 -19 -15 -19 -9 0 -27 -7 -41 -17 -19 -12 -24 -22 -20 -39 5 -17 1 -24
-14 -29 -24 -8 -25 -17 -5 -56 17 -32 13 -49 -11 -49 -8 0 -12 -4 -9 -10 3 -5
-3 -10 -15 -10 -19 0 -21 -4 -15 -29 5 -23 1 -33 -21 -50 -15 -11 -32 -21 -39
-21 -7 0 -15 -7 -19 -15 -3 -8 -16 -20 -28 -26 -49 -21 -103 -59 -86 -59 14 0
17 -8 14 -38 -1 -20 -10 -51 -19 -68 -9 -17 -17 -51 -18 -75 -1 -24 -8 -56
-16 -71 -12 -25 -11 -28 13 -47 15 -12 31 -21 36 -21 6 0 8 -7 5 -15 -4 -8 -2
-17 4 -21 6 -4 4 -13 -7 -25 -16 -18 -16 -19 6 -27 l23 -9 -21 -15 c-36 -25
-53 -90 -41 -151 6 -29 18 -60 27 -70 12 -14 13 -22 4 -43 -17 -36 -15 -93 3
-100 8 -4 15 -12 15 -20 0 -8 5 -14 11 -14 7 0 9 -10 5 -24 -3 -14 -1 -28 5
-32 7 -4 9 -24 5 -54 -4 -31 -3 -49 4 -52 16 -5 20 -93 8 -160 -8 -44 -8 -61
2 -73 6 -8 13 -32 14 -54 1 -26 10 -49 24 -63 14 -16 19 -31 15 -46 -3 -12 -1
-28 5 -35 5 -6 13 -26 16 -44 6 -24 3 -34 -11 -41 -17 -10 -17 -12 5 -41 12
-17 22 -37 22 -44 0 -8 7 -20 15 -27 8 -7 15 -26 15 -43 0 -17 8 -39 18 -50
24 -27 24 -208 -1 -289 -16 -54 -19 -57 -57 -63 -54 -9 -70 -34 -70 -113 0
-94 34 -141 101 -142 32 0 37 -4 45 -32 7 -23 20 -38 44 -50 19 -10 41 -32 50
-50 17 -36 42 -44 46 -15 1 11 -4 39 -11 64 -8 25 -12 50 -9 56 2 7 -3 50 -12
97 -8 47 -16 101 -18 120 -1 19 -8 46 -15 59 -10 18 -12 54 -7 139 3 63 8 117
10 121 13 20 91 346 100 416 13 101 49 252 70 293 14 26 46 70 71 97 75 80 75
76 70 391 -3 234 -2 288 12 337 9 32 23 63 32 70 9 7 33 34 54 60 40 49 148
127 178 127 9 0 22 7 29 15 7 8 24 15 37 15 14 0 37 7 51 15 33 18 173 47 227
46 22 0 82 0 133 0 56 0 100 -5 108 -12 7 -6 20 -9 28 -6 9 4 40 2 70 -3 32
-5 68 -5 85 0 17 5 33 5 35 1 3 -4 27 -8 53 -9 26 -1 73 -10 102 -22 45 -16
62 -18 93 -9 42 11 78 5 78 -14 0 -8 20 -12 57 -13 244 -4 441 -34 580 -87 48
-19 106 -40 128 -47 81 -26 201 -91 253 -136 91 -80 182 -236 190 -329 3 -27
5 -77 4 -110 -1 -33 5 -78 14 -100 10 -28 12 -48 6 -65 -5 -14 -6 -37 -2 -52
5 -14 6 -29 3 -31 -2 -3 3 -20 12 -37 9 -18 14 -42 11 -56 -4 -13 2 -45 13
-72 11 -27 26 -80 34 -119 8 -38 20 -79 26 -91 6 -12 8 -22 3 -22 -11 0 -6
-74 14 -193 8 -48 14 -111 14 -140 0 -28 5 -79 11 -112 5 -33 10 -127 10 -209
0 -149 6 -184 15 -85 13 162 24 247 34 274 7 17 13 37 14 45 11 79 21 118 37
133 11 10 19 24 19 32 0 9 11 25 25 37 14 12 25 30 25 40 0 10 3 18 8 18 4 0
16 28 27 63 18 59 34 96 45 107 20 19 34 77 35 150 3 92 10 137 27 157 6 7 7
20 4 29 -4 9 0 24 8 33 7 9 16 34 19 56 3 22 9 64 13 94 4 30 13 66 21 80 l13
26 6 -22 c4 -13 10 -23 14 -23 5 0 6 -18 3 -40 -6 -44 8 -54 29 -20 7 11 31
32 53 46 22 14 51 39 64 56 26 32 45 117 36 156 -3 13 -1 30 5 37 7 9 8 20 2
32 -5 10 -19 45 -30 78 -46 140 -76 222 -89 245 -8 14 -22 43 -32 66 -11 23
-47 66 -85 100 -36 32 -66 66 -66 75 0 10 -17 31 -37 48 -40 32 -44 36 -106
101 -35 36 -39 45 -43 107 -2 37 -9 72 -14 77 -15 15 -12 26 8 26 11 0 17 8
18 23 1 12 5 33 10 47 6 22 5 23 -8 12 -20 -16 -42 8 -43 46 0 19 -6 28 -20
30 -11 2 -32 17 -46 34 -20 24 -35 31 -75 35 -27 3 -54 12 -61 21 -16 19 -17
94 -2 109 5 5 12 27 15 47 12 98 -141 181 -349 191 -74 3 -81 5 -115 38 -41
39 -72 74 -72 83 0 8 -53 49 -63 49 -5 0 -15 11 -22 25 -11 20 -15 22 -19 10
-4 -10 -20 -15 -46 -15 -26 0 -39 4 -36 11 3 7 -18 16 -55 24 -35 8 -58 17
-56 24 2 6 11 10 21 8 9 -2 16 2 16 8 0 5 9 10 19 10 11 0 22 4 25 9 3 5 -24
14 -62 20 -37 7 -80 16 -97 21 -16 5 -56 16 -87 25 -38 11 -55 21 -52 29 4 9
-10 15 -42 20 -59 8 -61 7 -106 -9z m205 -122 c-7 -2 -19 -2 -25 0 -7 3 -2 5
12 5 14 0 19 -2 13 -5z m-1657 -559 c-4 -9 -9 -15 -11 -12 -3 3 -3 13 1 22 4
9 9 15 11 12 3 -3 3 -13 -1 -22z m3174 -819 c7 -9 10 -18 7 -22 -8 -7 -37 15
-37 28 0 14 16 11 30 -6z"/>
<path d="M2611 4450 c-19 -5 -40 -6 -47 -3 -7 2 -27 -3 -44 -12 -23 -12 -29
-20 -22 -27 8 -8 -1 -17 -33 -32 -27 -14 -62 -45 -94 -85 -65 -82 -65 -84 -1
-95 19 -3 29 -3 21 0 -23 11 46 34 79 27 17 -3 36 0 44 7 8 6 25 11 38 10 39
-4 48 -1 48 16 0 12 11 14 59 11 62 -5 121 -25 120 -42 -1 -18 -53 -52 -90
-58 -19 -3 -52 -16 -72 -29 -183 -117 -179 -113 -197 -192 -13 -57 -6 -86 20
-86 11 0 30 -5 44 -11 19 -9 29 -9 40 0 12 10 20 9 40 -4 24 -16 26 -16 32 -1
9 23 24 20 24 -6 0 -20 1 -20 19 -4 15 14 28 16 53 10 18 -4 44 -8 58 -8 23
-1 25 -5 22 -39 -3 -30 -1 -36 12 -31 9 3 16 17 16 29 0 13 5 27 10 30 6 4 10
-5 10 -19 0 -16 6 -26 14 -26 29 0 27 -21 -3 -33 l-30 -13 30 -13 c17 -7 44
-11 60 -7 21 4 35 0 48 -13 20 -20 79 -25 99 -8 7 6 36 10 63 10 30 0 53 5 60
13 6 8 20 14 31 14 71 0 166 121 172 220 4 67 -22 142 -65 184 -43 43 -49 57
-19 49 11 -3 20 -1 20 4 0 5 15 7 34 5 39 -4 43 1 61 69 11 42 11 49 -1 49 -8
0 -19 11 -24 25 -10 27 -25 33 -33 13 -3 -8 -9 -1 -16 15 -6 15 -21 31 -33 36
-39 16 -62 24 -78 27 -8 1 -35 8 -59 15 -30 8 -46 9 -48 2 -3 -7 -21 -6 -57 2
-50 12 -201 12 -268 0 -15 -2 -30 0 -33 5 -7 12 -85 11 -134 0z m104 -490 c18
-34 9 -38 -36 -14 -25 12 -28 18 -18 30 18 22 37 17 54 -16z"/>
<path d="M3873 4350 c-13 -5 -23 -14 -23 -20 0 -5 -7 -10 -15 -10 -32 0 -77
-81 -53 -96 5 -3 8 -15 6 -27 -2 -17 4 -24 30 -32 37 -11 37 -9 13 -119 -13
-57 -7 -88 15 -79 10 4 12 0 8 -11 -4 -12 0 -16 15 -16 17 0 21 -6 21 -34 0
-29 4 -35 28 -41 64 -16 91 -55 36 -55 -44 0 -26 -20 70 -79 69 -43 185 -81
262 -86 52 -3 56 14 7 30 -42 14 -58 30 -61 60 -1 20 2 26 12 22 8 -3 16 -1
19 6 2 7 31 12 78 13 52 1 89 8 122 22 44 20 50 20 103 6 57 -14 74 -12 74 9
0 17 -162 172 -200 192 -37 19 -39 34 -3 27 26 -5 124 -94 154 -139 8 -12 26
-25 42 -29 38 -9 36 14 -9 82 -49 73 -66 86 -237 170 -50 25 -65 43 -47 54 8
5 17 7 21 4 4 -2 9 0 11 6 1 5 49 14 106 20 89 9 105 9 118 -5 8 -8 18 -15 22
-16 4 0 18 -2 32 -4 14 -1 40 -7 58 -13 27 -9 34 -8 39 4 7 18 -14 44 -37 44
-11 0 -20 10 -23 30 -5 21 -12 30 -26 30 -10 0 -21 7 -25 15 -3 9 -18 15 -35
15 -16 0 -33 5 -36 10 -4 6 -11 8 -16 4 -6 -3 -30 4 -54 15 -27 13 -64 20 -97
20 -29 0 -98 0 -153 1 -55 0 -133 -5 -174 -10 -43 -6 -77 -7 -80 -2 -9 14 -93
22 -118 12z m502 -295 c17 -7 23 -14 15 -14 -8 0 -28 6 -45 14 -16 7 -23 14
-15 14 8 0 29 -6 45 -14z m69 -147 c21 -30 20 -45 -5 -53 -12 -4 -18 -12 -15
-21 4 -10 -3 -14 -26 -14 -28 0 -30 2 -25 28 16 81 42 102 71 60z m-89 -97
c-16 -15 -65 -25 -65 -13 0 11 21 19 55 21 12 1 15 -3 10 -8z"/>
<path d="M1670 3831 c-5 -11 -10 -30 -10 -42 0 -21 2 -20 25 11 23 31 25 50 5
50 -5 0 -14 -9 -20 -19z"/>
<path d="M1661 3744 c0 -11 3 -14 6 -6 3 7 2 16 -1 19 -3 4 -6 -2 -5 -13z"/>
<path d="M1663 3627 c2 -55 8 -102 15 -109 19 -19 26 17 13 69 -7 25 -9 58 -6
72 3 16 0 34 -10 46 -13 18 -15 11 -12 -78z"/>
<path d="M2737 3674 c-8 -8 1 -24 14 -24 5 0 9 7 9 15 0 15 -12 20 -23 9z"/>
<path d="M5234 3666 c-4 -10 0 -24 9 -33 15 -15 16 -14 13 10 -3 35 -14 45
-22 23z"/>
<path d="M5050 3239 c0 -44 -14 -79 -38 -93 -11 -7 -13 -22 -8 -76 5 -44 3
-70 -3 -75 -6 -3 -11 -1 -11 5 0 24 -18 -2 -24 -35 -4 -19 -10 -35 -15 -35 -8
0 -23 -47 -36 -108 -7 -32 -6 -33 14 -20 18 11 21 20 17 58 -3 25 -3 37 0 27
4 -11 12 -16 21 -13 8 3 19 6 24 6 5 0 9 11 9 23 0 13 3 27 8 31 4 4 7 15 8
24 1 10 2 29 3 44 0 14 13 40 27 57 20 24 26 43 27 80 1 41 4 47 19 43 22 -5
22 -4 -2 52 -26 57 -40 59 -40 5z"/>
<path d="M3170 3148 c-37 -20 -39 -75 -5 -112 28 -31 25 -46 -10 -46 -12 0
-26 -7 -29 -16 -9 -22 -8 -24 9 -24 9 0 20 -11 25 -25 7 -18 17 -25 37 -25 26
0 27 -1 8 -14 -11 -7 -34 -16 -51 -20 -22 -5 -36 -17 -50 -44 -16 -30 -30 -40
-73 -54 -30 -10 -62 -24 -71 -33 -18 -17 -45 -21 -35 -5 8 13 -4 13 -44 -1
-17 -6 -31 -15 -31 -20 0 -5 -29 -39 -64 -75 -39 -40 -66 -77 -70 -96 -9 -44
-7 -60 4 -53 6 3 7 -1 4 -9 -4 -11 0 -16 10 -16 13 0 15 -4 6 -19 -13 -26 -13
-31 3 -27 52 17 67 16 67 -3 0 -10 -7 -21 -15 -25 -8 -3 -15 -11 -15 -17 0 -7
-10 -26 -23 -43 -29 -39 -61 -122 -52 -136 4 -6 0 -17 -8 -23 -8 -7 -18 -23
-22 -35 -6 -19 -4 -23 10 -20 10 1 21 10 25 18 4 8 14 28 21 44 8 15 23 32 35
37 12 4 25 17 29 28 7 24 63 83 81 85 7 1 22 10 32 19 14 13 30 16 58 13 36
-5 54 -12 154 -62 25 -13 74 -27 109 -33 57 -9 66 -8 78 7 7 9 13 13 12 7 -3
-25 3 -35 21 -35 11 0 20 4 20 8 0 5 10 8 23 8 17 -1 22 5 22 24 0 18 -5 24
-17 22 -11 -2 -18 3 -18 13 0 8 -7 15 -15 15 -8 0 -24 9 -35 20 -12 12 -26 18
-31 14 -14 -8 -29 15 -22 33 7 18 23 17 23 -2 0 -8 5 -15 10 -15 6 0 10 4 10
9 0 5 8 12 18 16 17 8 183 19 282 20 30 0 58 5 62 10 12 19 130 16 228 -6 52
-11 105 -23 117 -25 12 -2 25 -13 28 -25 6 -19 45 -42 73 -44 7 0 17 -7 22
-15 8 -12 10 -9 10 12 0 16 8 33 19 40 23 14 18 32 -21 72 -17 18 -28 41 -28
58 0 33 -10 36 -28 8 -22 -35 -79 -26 -274 42 -53 19 -103 40 -111 47 -12 9
-28 7 -80 -10 l-65 -21 -47 24 c-54 27 -59 44 -12 41 17 -1 46 -2 62 -3 45 -2
95 11 95 24 0 24 23 37 39 22 9 -7 29 -16 44 -20 28 -7 29 -6 22 24 -4 17 -2
30 3 30 13 0 23 -27 16 -45 -4 -8 -1 -15 5 -15 6 0 11 5 11 11 0 5 4 8 9 5 5
-4 12 0 14 6 4 10 7 10 15 0 7 -11 18 -8 50 15 43 29 49 47 16 50 -50 5 -99
32 -111 61 -7 17 -17 33 -23 37 -6 4 -8 16 -4 28 6 18 4 20 -7 11 -8 -7 -22
-8 -34 -3 -29 11 -35 11 -29 -5 9 -24 -45 -30 -70 -8 -35 32 -46 35 -66 17
-22 -20 -39 -13 -90 38 -20 20 -38 31 -41 25 -5 -7 -19 -6 -43 2 -34 11 -39
10 -64 -15 l-26 -27 -39 42 c-44 46 -44 62 0 71 17 3 46 18 66 33 29 23 42 26
71 20 28 -5 36 -3 36 8 0 16 -34 50 -68 68 -36 18 -162 24 -192 8z m575 -308
c3 -5 -1 -10 -9 -10 -9 0 -16 5 -16 10 0 6 4 10 9 10 6 0 13 -4 16 -10z m-133
-339 c2 -13 -3 -26 -9 -28 -15 -6 -36 44 -28 65 5 14 8 14 20 1 8 -8 16 -25
17 -38z m-362 -95 c0 -3 -4 -8 -10 -11 -5 -3 -10 -1 -10 4 0 6 5 11 10 11 6 0
10 -2 10 -4z m95 -146 c3 -5 1 -10 -4 -10 -6 0 -11 5 -11 10 0 6 2 10 4 10 3
0 8 -4 11 -10z"/>
<path d="M3657 3123 c-30 -34 -21 -52 38 -79 31 -13 58 -31 61 -39 16 -41 94
13 94 65 0 44 -32 64 -108 68 -57 3 -70 1 -85 -15z"/>
<path d="M3445 3000 c-3 -5 1 -10 10 -10 9 0 13 5 10 10 -3 6 -8 10 -10 10 -2
0 -7 -4 -10 -10z"/>
<path d="M2060 2976 c0 -9 5 -16 10 -16 6 0 10 4 10 9 0 6 -4 13 -10 16 -5 3
-10 -1 -10 -9z"/>
<path d="M2064 2826 c-8 -22 3 -33 18 -18 9 9 9 15 0 24 -9 9 -13 7 -18 -6z"/>
<path d="M3915 2690 c-6 -10 33 -70 47 -70 5 0 -1 18 -12 40 -22 43 -25 46
-35 30z"/>
<path d="M3974 2668 c2 -14 9 -22 19 -20 8 1 18 -2 22 -8 8 -13 65 -13 65 -1
0 5 -8 17 -17 27 -17 16 -18 16 -21 1 -4 -22 -15 -21 -37 3 -24 26 -36 25 -31
-2z"/>
<path d="M4140 2589 c0 -6 -7 -9 -15 -5 -24 9 -17 -12 8 -25 31 -17 47 -41 41
-61 -7 -22 8 -49 21 -40 10 7 35 48 35 57 0 9 -72 85 -81 85 -5 0 -9 -5 -9
-11z"/>
<path d="M2230 2221 c0 -11 5 -23 10 -26 6 -3 10 3 10 14 0 11 -4 23 -10 26
-5 3 -10 -3 -10 -14z"/>
<path d="M3468 2183 c-25 -3 -38 -9 -38 -19 0 -13 -44 -20 -87 -15 -19 3 -63
-29 -63 -45 0 -8 16 -28 35 -46 35 -33 57 -88 36 -88 -8 0 -6 -12 4 -36 8 -19
14 -40 12 -46 -1 -5 14 -20 34 -33 32 -21 39 -22 62 -10 14 7 28 11 31 7 3 -3
6 0 6 6 0 7 7 12 15 12 10 0 15 10 15 28 0 15 7 35 14 45 8 10 13 31 11 47 -3
21 4 36 25 58 18 19 31 26 34 19 2 -7 5 2 5 18 1 23 -2 26 -9 15 -7 -11 -10
-4 -10 26 0 39 -2 42 -32 47 -18 3 -40 7 -48 9 -8 3 -32 3 -52 1z"/>
<path d="M2705 2088 c-33 -17 -46 -39 -34 -54 9 -11 17 -11 43 3 41 21 40 19
24 41 -11 16 -18 18 -33 10z"/>
<path d="M2300 2061 c0 -12 7 -24 15 -28 24 -9 25 0 4 26 -19 23 -19 23 -19 2z"/>
<path d="M2348 1988 c-5 -15 42 -87 57 -88 12 0 19 -11 68 -117 12 -27 32 -30
41 -7 12 31 5 49 -24 69 -19 13 -32 32 -36 52 -4 22 -10 30 -20 26 -8 -3 -14
-1 -14 4 0 11 -54 73 -63 73 -3 0 -7 -6 -9 -12z"/>
<path d="M4520 1990 c0 -5 5 -10 11 -10 5 0 7 5 4 10 -3 6 -8 10 -11 10 -2 0
-4 -4 -4 -10z"/>
<path d="M2761 1954 c-30 -38 -26 -48 9 -22 31 23 36 33 21 43 -5 3 -19 -7
-30 -21z"/>
<path d="M4489 1932 c-14 -15 -34 -40 -44 -55 -12 -19 -24 -27 -36 -24 -12 3
-20 -2 -24 -13 -6 -19 -91 -100 -106 -100 -5 0 -21 -13 -35 -30 -15 -16 -31
-27 -35 -24 -5 3 -14 -7 -20 -23 -14 -38 -38 -63 -61 -63 -11 0 -25 -14 -35
-35 -18 -37 -27 -43 -39 -23 -6 9 -10 5 -14 -12 -5 -18 -12 -24 -28 -23 -12 2
-22 -2 -22 -7 0 -6 -16 -26 -35 -46 l-35 -35 -12 26 c-16 36 -28 31 -25 -12 2
-34 0 -38 -20 -36 -14 2 -23 -3 -23 -11 0 -18 -30 -25 -58 -15 -14 5 -22 17
-22 31 0 34 11 43 55 44 37 0 40 2 40 27 -1 21 3 26 14 22 9 -3 12 -2 7 2 -4
4 -20 8 -34 8 -18 0 -27 5 -27 16 0 18 -23 49 -35 49 -5 0 -6 -9 -3 -20 3 -11
-2 -32 -12 -46 -9 -14 -14 -32 -11 -39 3 -8 1 -17 -4 -20 -6 -4 -10 -1 -10 6
0 7 -8 5 -20 -6 -11 -10 -20 -13 -20 -7 0 7 -7 12 -15 12 -8 0 -15 7 -15 15 0
8 -5 15 -11 15 -6 0 -9 -7 -5 -15 3 -9 0 -15 -9 -15 -16 0 -32 46 -21 58 4 3
17 7 29 7 27 0 25 30 -3 59 -19 20 -20 19 -35 -17 -16 -39 -31 -51 -22 -17 7
28 -14 42 -37 24 -17 -12 -18 -17 -7 -40 6 -15 10 -27 9 -28 -2 0 -18 -9 -36
-18 -32 -17 -33 -17 -27 2 3 11 -1 34 -9 52 -9 18 -15 44 -14 58 5 69 0 77
-46 89 -57 14 -54 15 -49 -12 3 -14 -3 -29 -17 -42 -20 -18 -21 -18 -37 4 -14
21 -17 21 -25 7 -10 -18 -45 -21 -68 -6 -12 8 -13 13 -2 30 18 30 15 35 -23
36 -29 0 -37 -4 -41 -22 -6 -23 -47 -64 -65 -64 -6 0 -9 9 -6 20 6 22 -16 27
-43 11 -10 -7 -18 -4 -28 10 -7 10 -20 19 -28 19 -8 0 -14 5 -14 10 0 6 5 10
12 10 6 0 8 3 5 7 -4 3 -2 12 5 20 17 21 4 25 -39 14 -49 -13 -85 -48 -63 -61
12 -8 12 -10 -2 -15 -17 -7 -31 -42 -22 -57 3 -4 14 -3 25 3 19 9 19 9 10 -10
-18 -32 -71 -40 -71 -9 0 6 8 7 18 3 13 -5 14 -3 6 5 -15 15 -113 19 -118 5
-2 -5 -7 -6 -12 -2 -4 4 0 21 10 38 21 36 12 53 -12 24 -21 -25 -58 -27 -54
-3 1 9 -6 19 -18 23 -11 3 -20 11 -20 17 0 6 -9 8 -20 5 -13 -3 -20 0 -20 9 0
8 -7 17 -16 21 -9 3 -14 13 -11 24 4 15 0 19 -19 19 -27 0 -34 -27 -9 -36 8
-4 15 -13 15 -20 0 -8 7 -17 15 -20 8 -4 15 -13 15 -20 0 -8 11 -19 25 -24 14
-5 25 -15 25 -22 0 -7 9 -19 20 -26 11 -7 20 -18 20 -26 0 -7 16 -26 35 -40
19 -15 35 -35 35 -45 0 -10 9 -26 19 -35 11 -10 17 -24 14 -32 -3 -8 1 -14 11
-14 9 0 16 -4 16 -9 0 -5 14 -14 30 -21 17 -7 35 -21 40 -31 6 -10 20 -21 32
-25 13 -4 43 -24 68 -44 47 -39 103 -70 127 -70 7 0 13 -4 13 -9 0 -11 47 -25
75 -22 19 1 19 1 3 -12 -26 -21 -22 -28 8 -15 20 9 30 9 46 -1 16 -10 22 -10
31 3 11 15 17 15 72 1 62 -17 158 -12 183 8 7 5 16 7 19 3 4 -4 1 -11 -7 -16
-37 -24 5 -7 47 19 42 25 108 49 108 39 0 -1 14 7 32 20 17 12 39 22 50 22 10
1 34 13 54 28 83 62 196 157 222 186 16 17 35 30 43 28 8 -2 14 5 14 18 0 11
5 20 10 20 6 0 19 9 30 20 11 11 28 20 39 20 17 0 156 150 205 223 12 18 46
56 74 85 29 29 52 59 52 67 0 22 -12 18 -41 -13z m-1539 -246 c0 -2 -7 -6 -15
-10 -8 -3 -15 -1 -15 4 0 6 7 10 15 10 8 0 15 -2 15 -4z m17 -44 c-10 -10 -15
-22 -12 -25 3 -4 0 -3 -5 1 -14 12 -1 42 18 42 13 0 13 -2 -1 -18z m268 -52
c5 -16 12 -19 32 -14 20 5 24 3 21 -11 -1 -10 -11 -23 -21 -29 -15 -9 -22 -7
-38 13 -20 24 -26 61 -10 61 5 0 13 -9 16 -20z m995 10 c0 -5 -2 -10 -4 -10
-3 0 -8 5 -11 10 -3 6 -1 10 4 10 6 0 11 -4 11 -10z m-1419 -103 c-10 -9 -11
-8 -5 6 3 10 9 15 12 12 3 -3 0 -11 -7 -18z m104 -1 c23 9 18 -9 -6 -24 -27
-17 -44 -3 -34 29 6 19 9 20 16 6 5 -9 16 -14 24 -11z m493 -1 c-16 -13 -28
-31 -28 -40 0 -8 -4 -15 -10 -15 -19 0 -10 49 12 64 37 26 57 19 26 -9z m-450
-38 c-14 -27 -21 -13 -13 25 7 28 9 30 15 13 4 -11 3 -28 -2 -38z m617 -15
c-3 -12 -12 -19 -20 -16 -7 3 -16 -3 -20 -15 -8 -25 -21 -27 -29 -5 -7 19 0
34 17 34 7 0 18 10 25 21 17 26 37 11 27 -19z"/>
<path d="M2690 1855 c-10 -12 -10 -15 3 -15 8 0 17 7 21 15 3 8 2 15 -3 15 -5
0 -14 -7 -21 -15z"/>
<path d="M2736 1854 c-6 -15 -4 -15 11 -3 10 7 20 15 22 16 2 2 -3 3 -11 3 -9
0 -19 -7 -22 -16z"/>
<path d="M2640 1821 c-13 -25 -13 -31 1 -31 5 0 8 4 4 9 -3 5 2 17 11 25 8 9
11 16 5 16 -6 0 -15 -9 -21 -19z"/>
<path d="M2765 1800 c-3 -5 -2 -10 4 -10 5 0 13 5 16 10 3 6 2 10 -4 10 -5 0
-13 -4 -16 -10z"/>
<path d="M3305 1790 c3 -5 8 -10 11 -10 2 0 4 5 4 10 0 6 -5 10 -11 10 -5 0
-7 -4 -4 -10z"/>
<path d="M2705 1680 c-18 -8 -17 -9 8 -9 15 -1 27 4 27 9 0 12 -8 12 -35 0z"/>
<path d="M3035 1680 c-19 -8 -19 -9 3 -9 12 -1 22 4 22 9 0 6 -1 10 -2 9 -2 0
-12 -4 -23 -9z"/>
<path d="M2831 1666 c-10 -12 -8 -13 8 -9 12 3 21 9 21 14 0 14 -16 11 -29 -5z"/>
<path d="M3485 1631 c-3 -5 -1 -12 5 -16 5 -3 10 1 10 9 0 18 -6 21 -15 7z"/>
<path d="M3703 1524 c8 -26 13 -31 19 -20 10 17 1 43 -17 49 -10 4 -11 -2 -2
-29z"/>
<path d="M3835 1550 c3 -5 8 -10 11 -10 2 0 4 5 4 10 0 6 -5 10 -11 10 -5 0
-7 -4 -4 -10z"/>
<path d="M1990 1170 c-30 -16 -73 -34 -96 -39 -23 -6 -71 -34 -108 -62 -85
-64 -326 -179 -468 -224 -32 -10 -58 -21 -58 -24 0 -11 48 -53 135 -118 1038
-780 2424 -919 3610 -363 61 28 151 74 200 102 97 55 365 229 365 238 -1 10
-96 68 -143 86 -27 11 -75 42 -108 70 -60 52 -69 56 -250 108 -56 16 -169 22
-169 9 0 -4 15 -22 33 -41 28 -29 32 -40 32 -86 0 -108 -130 -305 -283 -429
-159 -128 -338 -224 -507 -271 -273 -75 -388 -91 -650 -91 -230 1 -357 15
-600 66 -339 72 -504 159 -731 384 -126 125 -201 227 -242 329 -44 109 -14
243 76 332 64 64 52 72 -38 24z"/>
</g>
</svg>
